<svg id="Layer_5" enable-background="new 0 0 64 64" height="512" viewBox="0 0 64 64" width="512" xmlns="http://www.w3.org/2000/svg"><path d="m45 51c1.654 0 3-1.346 3-3s-1.346-3-3-3-3 1.346-3 3 1.346 3 3 3zm0-4c.551 0 1 .448 1 1s-.449 1-1 1-1-.448-1-1 .449-1 1-1z"/><path d="m63 1h-44v20.24c-10.16 1.463-18 10.202-18 20.76 0 11.579 9.42 21 21 21 2.182 0 4.321-.349 6.376-1.005.705.618 1.616 1.005 2.624 1.005h5 18 5c2.206 0 4-1.794 4-4 0-4.904-2.191-9.408-6-12.464v-.536c0-2.757-2.243-5-5-5h-.078c.698-1.204 1.078-2.572 1.078-4 0-.692-.097-1.359-.263-2h10.263zm-2 2v6h-40v-6zm-28 43v.537c-.19.152-.374.31-.556.469.281-1.275.47-2.611.531-4.006h1.051c-.635.838-1.026 1.87-1.026 3zm-5.777 14.259c-.81.231-1.633.407-2.468.529.684-.71 1.476-1.599 2.295-2.653-.016.289-.05.573-.05.865 0 .443.089.861.223 1.259zm-24.172-17.259h7.974c.128 2.94.813 5.622 1.773 8h-7.525c-1.298-2.403-2.071-5.12-2.222-8zm18.95-19.668c1.189 1.088 3.874 3.78 6.013 7.668h-12.021c2.138-3.883 4.82-6.578 6.008-7.668zm6.995 9.668c1.05 2.354 1.807 5.045 1.953 8h-17.898c.147-2.952.906-5.644 1.958-8zm-17.971 8h-7.974c.151-2.88.924-5.597 2.222-8h7.525c-.96 2.378-1.645 5.06-1.773 8zm2.026 2h17.898c-.147 2.952-.906 5.644-1.958 8h-13.987c-1.049-2.354-1.807-5.045-1.953-8zm14.956 10c-2.138 3.883-4.82 6.578-6.008 7.668-1.189-1.088-3.874-3.78-6.013-7.668zm4.968-12c-.128-2.94-.813-5.622-1.773-8h6.881c-.685 1.178-1.083 2.542-1.083 4 0 1.431.379 2.797 1.077 4h-.077zm-2.673-10c-1.732-3.463-3.947-6.127-5.556-7.796 5.125.747 9.728 3.56 12.739 7.796zm-11.069-7.775c-1.607 1.671-3.811 4.327-5.535 7.775h-7.161c2.939-4.119 7.472-7.008 12.696-7.775zm-12.696 29.775h7.161c1.724 3.448 3.928 6.105 5.535 7.775-5.224-.767-9.757-3.656-12.696-7.775zm22.463 6c0-3.721 1.446-7.176 4-9.775v7.775h-2v1c0 1.13.391 2.162 1.026 3h-1.026c-1.103 0-2-.897-2-2zm7 2c-1.304 0-2.416-.836-2.829-2h23.657c-.413 1.164-1.525 2-2.829 2zm25-2c0 1.103-.897 2-2 2h-1.026c.635-.838 1.026-1.87 1.026-3v-1h-2v-7.775c2.554 2.598 4 6.054 4 9.775zm-6-13v11h-20v-11c0-1.654 1.346-3 3-3h4 10c1.654 0 3 1.346 3 3zm-13-5h-1.463c-.99-1.102-1.537-2.505-1.537-4 0-3.309 2.691-6 6-6s6 2.691 6 6c0 1.491-.547 2.897-1.537 4zm9.918-8c-1.386-2.387-3.964-4-6.918-4-1.971 0-3.776.72-5.172 1.907-3.823-6.139-10.541-9.907-17.828-9.907-.338 0-.666.035-1 .051v-10.051h40v22z"/><path d="m23 5h2v2h-2z"/><path d="m27 5h2v2h-2z"/><path d="m31 5h2v2h-2z"/><path d="m23 19h18v-6h-18zm2-4h14v2h-14z"/><path d="m57 13h2v2h-2z"/><path d="m53 13h2v2h-2z"/><path d="m49 13h2v2h-2z"/><path d="m49 17h10v2h-10z"/><path d="m49 21h10v2h-10z"/><path d="m49 25h10v2h-10z"/><path d="m53 29h6v2h-6z"/><path d="m15 45h2v2h-2z"/><path d="m19 45h2v2h-2z"/><path d="m23 45h2v2h-2z"/><path d="m27 37h2v2h-2z"/><path d="m23 37h2v2h-2z"/><path d="m19 37h2v2h-2z"/></svg>