<?xml version="1.0"?>
<svg xmlns="http://www.w3.org/2000/svg" id="Computer-Engineer" viewBox="0 0 64 64" width="512" height="512"><path d="M57,7H41V9H57a3,3,0,0,1,3,3V40H46V35a9.01,9.01,0,0,0-9-9H27a9.01,9.01,0,0,0-9,9v5H4V12A3,3,0,0,1,7,9H23V7H7a5.006,5.006,0,0,0-5,5V45a5.006,5.006,0,0,0,5,5H23.867l-.75,6H22a2,2,0,0,0-2,2v2H18v2H46V60H44V58a2,2,0,0,0-2-2H40.883l-.75-6H57a5.006,5.006,0,0,0,5-5V12A5.006,5.006,0,0,0,57,7ZM44,35v5H41V35H39v5H33V34.18l4.836.806a1,1,0,0,0,1.154-1.128l-.822-5.752A7.005,7.005,0,0,1,44,35Zm-7.184-2.211L33.885,32.3l2.443-2.933ZM34.864,28,32,31.437,29.136,28Zm-7.192,1.368L30.115,32.3l-2.931.488ZM20,35a7.006,7.006,0,0,1,5.832-6.894l-.822,5.752a1,1,0,0,0,1.154,1.128L31,34.18V40H25V35H23v5H20ZM42,60H22V58H42Zm-3.133-4H25.133l.75-6H38.117ZM57,48H7a3,3,0,0,1-3-3V42H60v3A3,3,0,0,1,57,48Z"/><rect x="55" y="44" width="2" height="2"/><path d="M39,19V16a2.991,2.991,0,0,0,.946-5.832,6.885,6.885,0,0,0-1.995-4.111A6.79,6.79,0,0,0,35,4.306V4a2,2,0,0,0-2-2H31a2,2,0,0,0-2,2v.3a6.945,6.945,0,0,0-4.945,5.866A2.992,2.992,0,0,0,25,16v3a7,7,0,0,0,14,0ZM36.536,7.47A4.914,4.914,0,0,1,37.9,10H35V6.43A4.85,4.85,0,0,1,36.536,7.47ZM31,4h2v6H31ZM29,6.432V10H26.1A4.952,4.952,0,0,1,29,6.432ZM24,13a1,1,0,0,1,1-1H39a1,1,0,0,1,0,2H25A1,1,0,0,1,24,13Zm8,11a5.006,5.006,0,0,1-5-5V16H37v3A5.006,5.006,0,0,1,32,24Z"/></svg>
